Coordinates
version=1
nRows=14
nColumns=36
inDegrees=yes

Units are S.I. units (second, meters, Newtons, ...)
If the header above contains a line with 'inDegrees', this indicates whether rotational values are in degrees (yes) or radians (no).

endheader
time	pelvis_tilt	pelvis_list	pelvis_rotation	pelvis_tx	pelvis_ty	pelvis_tz	hip_flexion_r	hip_adduction_r	hip_rotation_r	knee_angle_r	knee_angle_r_beta	ankle_angle_r	subtalar_angle_r	mtp_angle_r	hip_flexion_l	hip_adduction_l	hip_rotation_l	knee_angle_l	knee_angle_l_beta	ankle_angle_l	subtalar_angle_l	mtp_angle_l	lumbar_extension	lumbar_bending	lumbar_rotation	arm_flex_r	arm_add_r	arm_rot_r	elbow_flex_r	pro_sup_r	arm_flex_l	arm_add_l	arm_rot_l	elbow_flex_l	pro_sup_l
      0.60000000	     -5.71727968	      5.81449779	     85.66000504	     -0.25916389	      0.95152755	      0.33839862	     -3.46419272	    -10.18705317	     -1.26726823	     54.46828540	      0.95065092	    -29.94731714	    -18.52938648	     -7.49984086	     11.46071235	      6.93027561	    -14.88367900	     20.67230603	      0.36079980	      1.88266398	     -5.73909311	     -7.49984086	    -17.20410566	     -7.27770727	      2.14841532	      4.96927200	     -4.26399856	    -32.74057785	     48.30231453	     96.61766463	     -3.00224622	     -4.14900680	    -39.12050974	     27.54079268	     83.05871042
      0.61000000	     -5.51925353	      5.84300846	     85.55991429	     -0.26040803	      0.95354522	      0.32745666	     -1.90012971	    -10.10233128	     -1.15514679	     56.56404097	      0.98722875	    -29.14375296	    -19.39220465	     -7.49984332	     10.44160428	      6.92172085	    -14.72867898	     20.26210668	      0.35364048	      2.45855185	     -5.47591192	     -7.49984332	    -17.48321696	     -7.00784297	      1.86396693	      5.03814212	     -4.15311059	    -32.70437403	     48.08821792	     96.44831332	     -2.38239527	     -4.06843140	    -38.96419457	     27.84315749	     82.99589244
      0.62000000	     -5.87716781	      5.32070163	     84.76485909	     -0.26044945	      0.95448727	      0.31637372	      0.68584143	    -10.65135720	     -0.54996635	     58.88672708	      1.02776727	    -27.19710397	    -21.67729272	     -7.49984812	      9.93521402	      7.27311268	    -15.79488702	     19.54491668	      0.34112315	      2.98882461	     -4.61531822	     -7.49984812	    -16.82443959	     -7.57978405	      2.22739411	      4.98687540	     -3.98089754	    -32.67893367	     47.45444536	     96.59343892	     -2.00437842	     -4.16901134	    -38.74348093	     28.23750942	     83.27003463
      0.63000000	     -5.95557848	      4.94912906	     84.25247327	     -0.26108230	      0.95575542	      0.30540249	      2.95276419	    -10.70293434	     -0.09397552	     60.70716512	      1.05953991	    -24.58912465	    -23.25282797	     -7.49985376	      9.26700466	      7.43231430	    -16.40996128	     18.88374889	      0.32958359	      3.51237868	     -3.82313386	     -7.49985376	    -16.47549276	     -7.69378675	      2.31976098	      5.00839105	     -3.85318769	    -32.76421010	     46.99975718	     96.75469864	     -1.56706748	     -4.17812920	    -38.40366085	     28.65081979	     83.57234042
      0.64000000	     -5.90096196	      4.72833711	     83.90756945	     -0.26198322	      0.95724003	      0.29423757	      4.93894570	    -10.65154809	      0.07823345	     62.05265387	      1.08302312	    -22.16439365	    -24.96203193	     -7.49985818	      8.38892978	      7.50172454	    -16.94105616	     18.18079869	      0.31731480	      3.93900910	     -2.91400822	     -7.49985818	    -16.27954197	     -7.61741108	      2.30154770	      4.90126177	     -3.86011022	    -32.49597277	     46.64511451	     95.02848151	     -1.11044993	     -4.28929234	    -37.52309749	     28.99403035	     82.37860766
      0.65000000	     -5.77378048	      4.32127834	     84.06816611	     -0.26333405	      0.95845973	      0.28382771	      6.97570266	    -10.40301549	     -0.11113732	     62.97455448	      1.09911332	    -20.53758390	    -26.61258421	     -7.49986033	      7.77237430	      7.59068244	    -16.62968988	     17.50479236	      0.30551626	      4.41661572	     -2.57613010	     -7.49986033	    -16.10781208	     -7.35768349	      1.83268485	      4.79872553	     -3.80844304	    -32.31372005	     46.54850656	     94.44303074	     -0.45149616	     -4.37287349	    -37.15069181	     29.45078718	     81.95040721
      0.66000000	     -5.74066251	      4.08156638	     83.83479825	     -0.26407623	      0.95972311	      0.27311581	      8.88036589	    -10.21220493	      0.07740907	     63.61137313	      1.11022790	    -18.25152007	    -28.20108311	     -7.49987465	      6.91150405	      7.66757951	    -17.34145829	     16.71291055	      0.29169532	      4.78145469	     -1.01780881	     -7.49987465	    -15.98152167	     -7.30746601	      1.69543268	      4.83323901	     -3.62217743	    -32.69670972	     46.24613792	     96.98218961	     -0.11094234	     -4.73961138	    -35.67971430	     30.16867986	     83.84375643
      0.67000000	     -5.53532062	      3.83969804	     84.06210985	     -0.26556631	      0.96113315	      0.26209250	     10.47018104	     -9.93685471	     -0.31808674	     63.71572631	      1.11204921	    -16.25208771	    -29.69787558	     -7.49987651	      5.97876193	      7.72567185	    -17.10260162	     15.83344310	      0.27634571	      4.97437952	     -0.73768555	     -7.49987651	    -15.86298892	     -6.93981680	      1.21693180	      4.63130518	     -3.63090776	    -32.65784053	     46.12133406	     96.88739237	      0.55316608	     -4.76636493	    -35.48879423	     30.49538372	     83.73238971
      0.68000000	     -5.52662155	      3.87889586	     84.23804640	     -0.26703579	      0.96256379	      0.25108957	     11.78295538	    -10.00054192	     -0.78032661	     63.63353239	      1.11061465	    -13.23417109	    -30.03406571	     -7.49988554	      4.66511327	      8.03131730	    -17.02377907	     14.73185448	      0.25711937	      5.02544749	      0.17932246	     -7.49988554	    -16.08306274	     -6.83930247	      0.77981861	      4.41430413	     -3.62422838	    -32.59858199	     46.16050209	     96.66591574	      1.14202134	     -4.95041566	    -34.71266586	     31.12851732	     83.56662591
      0.69000000	     -5.37146291	      3.78526586	     84.47538281	     -0.26842735	      0.96377342	      0.24020951	     13.08694102	     -9.78638468	     -1.18421529	     63.12657090	      1.10176651	    -10.74495438	    -30.40155486	     -7.49989188	      3.54603276	      8.13703946	    -16.83773844	     13.77288681	      0.24038222	      5.24878453	      0.97412839	     -7.49989188	    -16.18642716	     -6.54916489	      0.37241778	      4.09916248	     -3.62730726	    -32.59719689	     46.36461262	     96.85250265	      1.82796837	     -5.14520245	    -33.88297243	     31.63032056	     83.77387933
      0.70000000	     -5.00873762	      3.84041887	     84.83563243	     -0.26976183	      0.96512343	      0.22932797	     14.09126526	     -9.42223923	     -1.86653688	     62.29537255	      1.08725936	     -8.53221812	    -30.36266497	     -7.49990365	      2.30159581	      8.00367491	    -16.53116060	     12.95561768	      0.22611819	      5.56768986	      1.70991098	     -7.49990365	    -16.45766589	     -6.02268435	     -0.13064152	      3.78566409	     -3.70727203	    -32.40363789	     46.57835468	     96.03683525	      2.44511536	     -5.41490805	    -32.68704576	     32.27429625	     83.14514521
      0.71000000	     -4.66008665	      3.79910049	     85.14251967	     -0.27095758	      0.96619279	      0.21862536	     15.13531249	     -9.01708985	     -2.45055564	     61.12055368	      1.06675490	     -6.58151716	    -30.02562144	     -7.49991450	      1.20989712	      7.82136640	    -16.38666572	     12.21475438	      0.21318768	      5.86459850	      2.67026762	     -7.49991450	    -16.64826576	     -5.54827663	     -0.49207627	      3.43210980	     -3.78072757	    -32.36300130	     46.83544927	     95.32627720	      3.22675822	     -5.63126222	    -31.77015830	     32.80036522	     82.50453125
      0.72000000	     -4.35612149	      3.65738376	     85.50859904	     -0.27222362	      0.96681088	      0.20798244	     16.23031340	     -8.65405793	     -3.04768930	     59.70456128	      1.04204117	     -5.03618242	    -29.62045910	     -7.49993331	      0.28427252	      7.65439888	    -16.30436399	     11.58748579	      0.20223978	      6.20582537	      3.57934851	     -7.49993331	    -16.70080379	     -5.06155984	     -0.98322293	      3.28686150	     -3.78528103	    -32.67713942	     46.81729900	     97.95844251	      3.87852014	     -6.08180004	    -30.44187162	     33.26959710	     84.22749619
      0.73000000	     -4.03102882	      3.58882854	     85.99474752	     -0.27361985	      0.96738978	      0.19753752	     17.10015255	     -8.32907398	     -3.81471508	     57.91017887	      1.01072329	     -3.78655142	    -28.87350482	     -7.49993989	     -0.62912450	      7.43073704	    -16.14127559	     11.09748498	      0.19368765	      6.52516453	      4.32326357	     -7.49993989	    -16.90333378	     -4.55368837	     -1.41709611	      2.95343305	     -3.82146419	    -32.81484334	     47.14651740	     96.30818550	      4.90156614	     -6.18474199	    -29.91325521	     33.70678123	     83.21188949
